<svg width="36" height="35" viewBox="0 0 36 35" fill="none" xmlns="http://www.w3.org/2000/svg">
<mask id="mask0_5_830" style="mask-type:luminance" maskUnits="userSpaceOnUse" x="1" y="0" width="34" height="35">
<path d="M35 0.0900879H1V34.0901H35V0.0900879Z" fill="white"/>
</mask>
<g mask="url(#mask0_5_830)">
<path d="M30.1539 13.0492H27.4432C26.5374 11.7192 25.3322 10.6074 23.9281 9.81446C22.3558 8.92653 20.5704 8.45728 18.765 8.45728H18C17.4451 8.45728 16.9953 8.90707 16.9953 9.46192V13.0492H5.8461C3.39815 13.0492 1.36964 14.8741 1.04617 17.2346C1.04254 17.2574 1.03943 17.2802 1.03735 17.3036C1.01375 17.4979 1 17.695 1 17.8955V21.737C1 22.2918 1.4498 22.7416 2.00465 22.7416H5.51978C5.96672 24.4682 7.5379 25.7468 9.40221 25.7468C11.2665 25.7468 12.8377 24.4682 13.2846 22.7416H22.7154C23.1626 24.4682 24.7335 25.7468 26.5978 25.7468C28.4621 25.7468 30.033 24.4682 30.4802 22.7416H33.9953C34.5502 22.7416 35 22.2918 35 21.737V17.8955C35 15.2232 32.826 13.0492 30.1539 13.0492ZM19.0047 10.4702C21.2251 10.5338 23.3312 11.4808 24.8588 13.0492H19.0047V10.4702ZM3.00931 18.3941H4.56104C5.11589 18.3941 5.56569 17.9443 5.56569 17.3894C5.56569 16.8346 5.11589 16.3848 4.56104 16.3848H3.44691C3.94989 15.5887 4.83704 15.0587 5.8461 15.0587H16.9953V20.7323H13.2846C12.8374 19.0058 11.2665 17.7269 9.40221 17.7269C7.5379 17.7269 5.96698 19.0058 5.51978 20.7323H3.00931V18.3941ZM11.4027 21.737C11.4027 22.8402 10.5054 23.7375 9.40221 23.7375C8.29898 23.7375 7.40172 22.8402 7.40172 21.737C7.40172 20.6338 8.29898 19.7365 9.40221 19.7365C10.5054 19.7365 11.4027 20.6338 11.4027 21.737ZM28.5983 21.737C28.5983 22.8402 27.701 23.7375 26.5978 23.7375C25.4946 23.7375 24.5973 22.8402 24.5973 21.737C24.5973 20.6338 25.4946 19.7365 26.5978 19.7365C27.701 19.7365 28.5983 20.6338 28.5983 21.737ZM30.4802 20.7323C30.0333 19.0058 28.4621 17.7269 26.5978 17.7269C24.7335 17.7269 23.1623 19.0058 22.7154 20.7323H19.0047V15.0587H30.1539C31.1451 15.0587 32.019 15.5703 32.5264 16.3428H30.9715C30.4167 16.3428 29.9669 16.7926 29.9669 17.3474C29.9669 17.9023 30.4167 18.3523 30.9715 18.3523H32.9907V20.7323H30.4802Z" fill="#050B20"/>
</g>
</svg>
