<svg width="36" height="35" viewBox="0 0 36 35" fill="none" xmlns="http://www.w3.org/2000/svg">
<mask id="mask0_5_818" style="mask-type:luminance" maskUnits="userSpaceOnUse" x="1" y="0" width="34" height="35">
<path d="M35 0.0900879H1V34.0901H35V0.0900879Z" fill="white"/>
</mask>
<g mask="url(#mask0_5_818)">
<path d="M31.759 15.6774L25.8898 14.6987C25.5466 14.1413 24.8644 13.133 23.8725 12.1228C21.8927 10.1065 19.6133 9.04077 17.2806 9.04077H7.7225C6.16993 9.04077 4.73044 9.88021 3.96577 11.2315L1.3319 15.8863C1.32765 15.8938 1.32446 15.9016 1.32041 15.9092C1.11668 16.2738 1 16.6934 1 17.14V22.0449C1 22.595 1.44598 23.0409 1.99609 23.0409H5.18632C5.65455 24.2661 6.848 25.1395 8.24339 25.1395C9.63879 25.1395 10.8322 24.2661 11.3005 23.0409H23.672C24.1402 24.2661 25.3336 25.1395 26.729 25.1395C28.1244 25.1395 29.3178 24.2661 29.786 23.0409H34.0039C34.554 23.0409 35 22.595 35 22.0449V19.4079C35 17.5393 33.6077 15.9383 31.759 15.6774ZM23.3976 14.6083H16.222V11.033H17.2806C20.104 11.033 22.2363 13.1203 23.3976 14.6083ZM9.57371 11.033H14.2299V14.6083H9.57371V11.033ZM5.69964 12.2126C6.08811 11.5261 6.80012 11.0854 7.58152 11.0378V14.6083H4.34402L5.69964 12.2126ZM8.24339 23.1473C7.53929 23.1473 6.96647 22.5841 6.96647 21.8917C6.96647 21.1994 7.53929 20.6361 8.24339 20.6361C8.9475 20.6361 9.52032 21.1994 9.52032 21.8917C9.52032 22.5841 8.9475 23.1473 8.24339 23.1473ZM26.729 23.1473C26.0248 23.1473 25.452 22.5841 25.452 21.8917C25.452 21.1994 26.0249 20.6361 26.729 20.6361C27.4331 20.6361 28.0059 21.1994 28.0059 21.8917C28.0059 22.5841 27.4331 23.1473 26.729 23.1473ZM29.8857 21.0487C29.5111 19.6654 28.2381 18.6439 26.729 18.6439C25.2198 18.6439 23.9469 19.6654 23.5721 21.0487H11.4001C11.0255 19.6654 9.75254 18.6439 8.24339 18.6439C6.73425 18.6439 5.4613 19.6654 5.08657 21.0487H2.99219V17.14C2.99219 16.8425 3.23417 16.6005 3.53167 16.6005H25.183L31.4445 17.6447C31.4541 17.6463 31.4637 17.6478 31.4734 17.6491C31.6428 17.6723 31.804 17.7196 31.9541 17.7868C31.5374 17.906 31.232 18.2889 31.232 18.7439C31.232 19.294 31.678 19.74 32.2281 19.74H33.0078V21.0488L29.8857 21.0487Z" fill="#050B20"/>
</g>
</svg>
