<svg width="34" height="35" viewBox="0 0 34 35" fill="none" xmlns="http://www.w3.org/2000/svg">
<path d="M30.5394 15.8364L26.3033 14.1427L23.8414 8.39778C23.3378 7.22371 22.1882 6.46509 20.9111 6.46509H11.1658C9.75056 6.46509 8.48938 7.41603 8.1005 8.77709L6.63637 13.9026H4.25C3.07806 13.9026 2.125 14.8557 2.125 16.0276V22.4026C2.125 23.5745 3.07806 24.5276 4.25 24.5276H6.52588C7.00081 26.3551 8.65088 27.7151 10.625 27.7151C12.5991 27.7151 14.2492 26.3551 14.7241 24.5276H19.2759C19.7508 26.3551 21.4009 27.7151 23.375 27.7151C25.3491 27.7151 26.9992 26.3551 27.4741 24.5276H29.75C30.9219 24.5276 31.875 23.5745 31.875 22.4026V17.8094C31.875 16.935 31.3512 16.1604 30.5394 15.8364ZM10.625 25.5901C9.45306 25.5901 8.5 24.637 8.5 23.4651C8.5 22.2932 9.45306 21.3401 10.625 21.3401C11.7969 21.3401 12.75 22.2932 12.75 23.4651C12.75 24.637 11.7969 25.5901 10.625 25.5901ZM23.375 25.5901C22.2031 25.5901 21.25 24.637 21.25 23.4651C21.25 22.2932 22.2031 21.3401 23.375 21.3401C24.5469 21.3401 25.5 22.2932 25.5 23.4651C25.5 24.637 24.5469 25.5901 23.375 25.5901ZM29.75 22.4026H27.4741C26.9992 20.5751 25.3491 19.2151 23.375 19.2151C21.4009 19.2151 19.7508 20.5751 19.2759 22.4026H14.7241C14.2492 20.5751 12.5991 19.2151 10.625 19.2151C8.65088 19.2151 7.00081 20.5751 6.52588 22.4026H4.25V16.0276H7.4375C7.91138 16.0276 8.32894 15.7131 8.45856 15.2573L10.1426 9.36146C10.2733 8.90671 10.693 8.59009 11.1658 8.59009H20.9111C21.3361 8.59009 21.7196 8.84296 21.8875 9.23396L24.5225 15.3837C24.633 15.643 24.8423 15.847 25.1037 15.9522L29.75 17.8094V22.4026Z" fill="#050B20"/>
<path d="M15.3481 19.0366C14.8604 18.7115 14.7287 18.0517 15.0538 17.5629L16.077 16.0276H14.8753C14.4833 16.0276 14.1231 15.8119 13.9382 15.4666C13.7533 15.1213 13.7735 14.7016 13.9913 14.3765L16.1163 11.189C16.4414 10.7003 17.1013 10.5685 17.59 10.8947C18.0777 11.2198 18.2094 11.8796 17.8843 12.3684L16.8611 13.9026H18.0628C18.4549 13.9026 18.8151 14.1183 18.9999 14.4636C19.1848 14.8089 19.1646 15.2286 18.9468 15.5538L16.8218 18.7413C16.4956 19.2311 15.8348 19.3618 15.3481 19.0366Z" fill="#050B20"/>
</svg>
