<svg width="19" height="23" viewBox="0 0 19 23" fill="none" xmlns="http://www.w3.org/2000/svg">
<path d="M15.7188 12.0596C15.7188 12.1572 15.5723 15.0381 18.7461 16.5518C18.1602 18.3584 16.1094 22.3623 13.7168 22.3623C12.3496 22.3623 11.5684 21.4834 10.0059 21.4834C8.39453 21.4834 7.51562 22.3623 6.29492 22.3623C3.95117 22.46 1.70508 18.0654 1.07031 16.2588C0.582031 14.8916 0.386719 13.5732 0.386719 12.3037C0.386719 7.95801 3.26758 5.8584 6.00195 5.80957C7.32031 5.80957 8.98047 6.7373 9.71289 6.7373C10.3965 6.7373 12.3008 5.61426 14.0586 5.76074C15.8652 5.90723 17.2324 6.59082 18.1602 7.90918C16.5488 8.93457 15.7188 10.2529 15.7188 12.0596ZM12.9844 4.05176C12.0078 5.1748 10.8359 5.80957 9.56641 5.71191C9.46875 4.39355 9.95703 3.17285 10.8359 2.19629C11.6172 1.31738 12.9844 0.584961 14.1562 0.487305C14.1562 1.02441 14.3027 2.48926 12.9844 4.05176Z" fill="white"/>
</svg>
