<svg width="14" height="15" viewBox="0 0 14 15" fill="none" xmlns="http://www.w3.org/2000/svg">
<path d="M13.6111 0.190094H5.05557C4.84061 0.190094 4.66667 0.364037 4.66667 0.578995C4.66667 0.793953 4.84061 0.967896 5.05557 0.967896H12.6723L0.113941 13.5263C-0.0379804 13.6782 -0.0379804 13.9243 0.113941 14.0762C0.189884 14.1521 0.289415 14.1901 0.38891 14.1901C0.488405 14.1901 0.5879 14.1521 0.663879 14.0762L13.2222 1.51779V9.13456C13.2222 9.34952 13.3961 9.52346 13.6111 9.52346C13.8261 9.52346 14 9.34952 14 9.13456V0.578995C14 0.364037 13.826 0.190094 13.6111 0.190094Z" fill="white"/>
</svg>
