<svg width="12" height="13" viewBox="0 0 12 13" fill="none" xmlns="http://www.w3.org/2000/svg">
<g clip-path="url(#clip0_5_256)">
<path d="M2.55859 6.66992C2.55859 6.42992 2.65193 6.22992 2.83859 6.06992L7.99859 0.909923C8.15859 0.749922 8.35193 0.669922 8.57859 0.669922C8.80526 0.669922 9.00526 0.749922 9.17859 0.909923C9.35193 1.06992 9.43859 1.26992 9.43859 1.50992C9.43859 1.74992 9.34526 1.94992 9.15859 2.10992L4.59859 6.66992L9.15859 11.2299C9.31859 11.3899 9.39859 11.5899 9.39859 11.8299C9.39859 12.0699 9.31859 12.2699 9.15859 12.4299C8.99859 12.5899 8.80526 12.6699 8.57859 12.6699C8.35193 12.6699 8.15859 12.5899 7.99859 12.4299L2.83859 7.26992C2.65193 7.10992 2.55859 6.90992 2.55859 6.66992Z" fill="#050B20"/>
</g>
<defs>
<clipPath id="clip0_5_256">
<rect width="12" height="12" fill="white" transform="matrix(1 0 0 -1 0 12.6699)"/>
</clipPath>
</defs>
</svg>
